# xmcd
#
# Track frame offsets:
#	150
#	11425
#	25575
#	36725
#	45497
#	60907
#	74387
#	86337
#	95460
#	113702
#	129202
#	141840
#	155930
#	168055
#	180760
#	196282
#	209487
#	217365
#	232597
#	249409
#
# Disc length: 3487 seconds
#
# Revision: 0
# Processed by: cddbd v1.5PL3 Copyright (c) Steve Scherf et al.
# Submitted via: dBpowerAMP V4.0
#
DISCID=050d9d14
DTITLE=Ray Montera - The orbison sound of..
DYEAR=1900
DGENRE=Country
TTITLE0=Singing the blues
TTITLE1=Oh lonesome me
TTITLE2=Silvery moon
TTITLE3=Uptown
TTITLE4=Little coquette
TTITLE5=Take my heart
TTITLE6=It keeps right on a-hurtin
TTITLE7=Don't be cruel
TTITLE8=This time
TTITLE9=Blue eyes orying in the rain
TTITLE10=I wonder
TTITLE11=Dream baby
TTITLE12=Till i waltz again with you
TTITLE13=True love ways
TTITLE14=A love worth waiting for
TTITLE15=Can't help falling in love
TTITLE16=Rave on
TTITLE17=It's all in the game
TTITLE18=Indo dreams
TTITLE19=Candy man
EXTD=
EXTT0=
EXTT1=
EXTT2=
EXTT3=
EXTT4=
EXTT5=
EXTT6=
EXTT7=
EXTT8=
EXTT9=
EXTT10=
EXTT11=
EXTT12=
EXTT13=
EXTT14=
EXTT15=
EXTT16=
EXTT17=
EXTT18=
EXTT19=
PLAYORDER=
